<svg width="32" height="32" viewBox="0 0 32 32" fill="none" xmlns="http://www.w3.org/2000/svg">
<circle cx="16.0001" cy="16" r="16" fill="#E96744"/>
<path d="M16.0001 16.9752C20.7636 16.9752 24.6251 20.8367 24.6251 25.6002H23.3751C23.3751 21.5271 20.0732 18.2252 16.0001 18.2252C11.927 18.2252 8.62512 21.5271 8.62512 25.6002H7.37512C7.37512 20.8367 11.2367 16.9752 16.0001 16.9752ZM15.9991 6.39998C18.65 6.39998 20.7988 8.54891 20.799 11.1998C20.799 13.8507 18.6501 15.9996 15.9991 15.9996C13.3485 15.9992 11.1993 13.8505 11.1993 11.1998C11.1994 8.54913 13.3485 6.40033 15.9991 6.39998ZM15.9991 7.64998C14.0389 7.65033 12.4494 9.23948 12.4493 11.1998C12.4493 13.1602 14.0388 14.7492 15.9991 14.7496C17.9598 14.7496 19.549 13.1604 19.549 11.1998C19.5488 9.23926 17.9597 7.64998 15.9991 7.64998Z" fill="#FAFAFA"/>
</svg>
